<?xml version="1.0" encoding="UTF-8"?><svg id="a" xmlns="http://www.w3.org/2000/svg" viewBox="0 0 20.27 33.5"><defs><style>.b{fill:#fff;}.c{fill:#5ec783;}.d{fill:#4e5660;}.e{fill:#d2996f;}.f{fill:#383c43;}.g{fill:#8ee2cf;}.h{fill:#89d47f;}.i{fill:#e1b89a;}</style></defs><path class="g" d="M12.47,2.53c-1.35,1.35-1.84,3.25-2.02,4.58-.11,.86,.62,1.59,1.47,1.47,1.33-.18,3.24-.67,4.58-2.02,1.35-1.35,1.84-3.25,2.02-4.59,.11-.86-.62-1.59-1.47-1.47-1.33,.18-3.24,.67-4.58,2.02Z"/><path class="i" d="M10.4,7.68c-.57,0-1.04-.46-1.04-1.04,0-1.5-1.22-2.71-2.71-2.71-.57,0-1.04-.46-1.04-1.04s.46-1.04,1.04-1.04c2.64,0,4.79,2.15,4.79,4.79,0,.57-.46,1.04-1.04,1.04Z"/><path class="d" d="M10.4,33.5c-5.44,0-9.87-4.43-9.87-9.87,0-2.95,.87-4.49,1.64-5.85,.69-1.21,1.23-2.17,1.23-4.35,0-3.86,3.14-7,7-7s7,3.14,7,7c0,2.18,.54,3.14,1.23,4.35,.77,1.36,1.64,2.9,1.64,5.85,0,5.44-4.43,9.87-9.87,9.87h0Z"/><path class="f" d="M16.64,31.27C5.94,29.77,4.31,13.73,8.03,6.84c-2.7,.97-4.63,3.56-4.63,6.59,0,2.18-.54,3.14-1.23,4.35-.77,1.36-1.64,2.9-1.64,5.85,0,5.44,4.43,9.87,9.87,9.87,2.37,0,4.54-.84,6.24-2.23h0Z"/><path class="h" d="M2.26,23.63c0-5.04,2.87-4.98,2.87-10.2,0-2.91,2.36-5.27,5.27-5.27s5.27,2.36,5.27,5.27c0,5.22,2.87,5.16,2.87,10.2,0,4.5-3.64,8.14-8.14,8.14S2.26,28.13,2.26,23.63Z"/><path class="c" d="M7.01,9.4c-1.15,.97-1.88,2.41-1.88,4.03,0,5.22-2.87,5.16-2.87,10.2,0,4.5,3.64,8.14,8.14,8.14,1.46,0,2.84-.39,4.02-1.06-7.67-2.87-9.46-14.28-7.41-21.32h0Z"/><path class="i" d="M13.22,20.81c-1.56-1.56-4.08-1.56-5.64,0s-1.56,4.08,0,5.64,4.08,1.56,5.64,0,1.56-4.08,0-5.64Z"/><path class="e" d="M13.67,25.92c-4.31,.73-6.32-3.95-4.16-6.17-1.77,.41-3.09,1.99-3.09,3.88,0,2.2,1.78,3.99,3.99,3.99,1.35,0,2.54-.67,3.27-1.7Z"/><path class="b" d="M8.02,18.29c0-.61-.62-1.11-1.39-1.11s-1.39,.5-1.39,1.11,.62,1.11,1.39,1.11,1.39-.5,1.39-1.11Zm7.56,0c0-.61-.62-1.11-1.39-1.11s-1.39,.5-1.39,1.11,.62,1.11,1.39,1.11,1.39-.5,1.39-1.11ZM0,0"/></svg>