<?xml version="1.0" encoding="UTF-8"?><svg id="a" xmlns="http://www.w3.org/2000/svg" viewBox="0 0 33 29.26"><path d="M32.05,17.02H.96c-.53,0-.96-.43-.96-.96v-2.28c0-.53,.43-.96,.96-.96h31.09c.53,0,.96,.43,.96,.96v2.28c0,.53-.43,.96-.96,.96Z" style="fill:#fad97e;"/><path d="M32.05,12.83h-2.53c.53,0,.96,.43,.96,.96v2.28c0,.53-.43,.96-.96,.96h2.53c.53,0,.96-.43,.96-.96v-2.28c0-.53-.43-.96-.96-.96Z" style="isolation:isolate; opacity:.1;"/><path d="M30.48,17.02H2.53l1.4,10.18c.16,1.18,1.17,2.06,2.36,2.06H26.72c1.19,0,2.2-.88,2.36-2.06l1.4-10.18h0Z" style="fill:#a16b4e;"/><path d="M2.53,17.02l.24,1.72H27.71l-1.16,8.46c-.16,1.18-1.17,2.06-2.36,2.06h2.53c1.19,0,2.2-.88,2.36-2.06l1.16-8.46,.24-1.72H2.53Z" style="isolation:isolate; opacity:.1;"/><path d="M27.87,12.83h-3.14V6.54c0-1.87-1.52-3.4-3.4-3.4H11.67c-1.87,0-3.4,1.52-3.4,3.4v6.29h-3.14V6.54C5.13,2.93,8.06,0,11.67,0h9.67c3.6,0,6.54,2.93,6.54,6.54v6.29Z" style="fill:#a16b4e;"/><path d="M5.13,11.11h3.14v1.72h-3.14v-1.72Z" style="isolation:isolate; opacity:.1;"/><path d="M24.74,11.11h3.14v1.72h-3.14v-1.72Z" style="isolation:isolate; opacity:.1;"/><path d="M12.38,0h8.25V3.14H12.38V0Z" style="fill:#fad97e;"/><g style="opacity:.3;"><ellipse cx="12.32" cy="22.17" rx="1.79" ry=".78"/><ellipse cx="20.68" cy="22.17" rx="1.79" ry=".78"/></g></svg>